HIERARCHY
ROOT Root
{
  OFFSET 0.0 0.0 0.0
  CHANNELS 6 Xposition Yposition Zposition Zrotation Yrotation Xrotation
  JOINT Hips
  {
    OFFSET 0.0 100.0 0.0
    CHANNELS 6 Xposition Yposition Zposition Zrotation Yrotation Xrotation
    JOINT Spine1
    {
      OFFSET -0.013727 5.003763 -0.053727
      CHANNELS 3 Zrotation Yrotation Xrotation
      JOINT Spine2
      {
        OFFSET -0.0 7.125301 -0.029825
        CHANNELS 3 Zrotation Yrotation Xrotation
        JOINT Chest
        {
          OFFSET -1e-06 7.550063 -0.815971
          CHANNELS 3 Zrotation Yrotation Xrotation
          JOINT Neck1
          {
            OFFSET -0.181677 26.311295 -0.553348
            CHANNELS 3 Zrotation Yrotation Xrotation
            JOINT Neck2
            {
              OFFSET -3e-06 7.709397 2.302585
              CHANNELS 3 Zrotation Yrotation Xrotation
              JOINT Head
              {
                OFFSET -5e-06 6.128916 1.953709
                CHANNELS 3 Zrotation Yrotation Xrotation
                JOINT HeadEnd
                {
                  OFFSET 0.003598 16.065403 -1.835379
                  CHANNELS 3 Zrotation Yrotation Xrotation
                }
                JOINT Jaw
                {
                  OFFSET 0.002637 0.475592 3.094941
                  CHANNELS 3 Zrotation Yrotation Xrotation
                }
                JOINT LeftEye
                {
                  OFFSET 3.206381 5.380205 7.586883
                  CHANNELS 3 Zrotation Yrotation Xrotation
                }
                JOINT RightEye
                {
                  OFFSET -3.22244 5.361869 7.558234
                  CHANNELS 3 Zrotation Yrotation Xrotation
                }
              }
            }
          }
          JOINT LeftShoulder
          {
            OFFSET 1.621652 23.237164 5.113413
            CHANNELS 3 Zrotation Yrotation Xrotation
            JOINT LeftArm
            {
              OFFSET 14.919846 2e-06 -5.502326
              CHANNELS 3 Zrotation Yrotation Xrotation
              JOINT LeftForeArm
              {
                OFFSET 28.739307 0.0 -0.002588
                CHANNELS 3 Zrotation Yrotation Xrotation
                JOINT LeftHand
                {
                  OFFSET 27.093981 -1e-06 0.002609
                  CHANNELS 3 Zrotation Yrotation Xrotation
                  JOINT LeftHandThumb1
                  {
                    OFFSET 2.276482 -1.392045 3.191413
                    CHANNELS 3 Zrotation Yrotation Xrotation
                    JOINT LeftHandThumb2
                    {
                      OFFSET 4.012836 -1.828127 1.641654
                      CHANNELS 3 Zrotation Yrotation Xrotation
                      JOINT LeftHandThumb3
                      {
                        OFFSET 2.798515 0.0 -3e-06
                        CHANNELS 3 Zrotation Yrotation Xrotation
                        JOINT LeftHandThumbEnd
                        {
                          OFFSET 3.180793 -4e-06 4e-06
                          CHANNELS 3 Zrotation Yrotation Xrotation
                        }
                      }
                    }
                  }
                  JOINT LeftHandIndex1
                  {
                    OFFSET 3.247555 -0.531998 2.296169
                    CHANNELS 3 Zrotation Yrotation Xrotation
                    JOINT LeftHandIndex2
                    {
                      OFFSET 6.364578 0.01206 0.1786
                      CHANNELS 3 Zrotation Yrotation Xrotation
                      JOINT LeftHandIndex3
                      {
                        OFFSET 3.662364 0.0 0.0
                        CHANNELS 3 Zrotation Yrotation Xrotation
                        JOINT LeftHandIndex4
                        {
                          OFFSET 2.329242 4e-06 4e-06
                          CHANNELS 3 Zrotation Yrotation Xrotation
                          JOINT LeftHandIndexEnd
                          {
                            OFFSET 2.759615 -0.180537 -0.113024
                            CHANNELS 3 Zrotation Yrotation Xrotation
                          }
                        }
                      }
                    }
                  }
                  JOINT LeftHandMiddle1
                  {
                    OFFSET 3.163495 0.240981 1.000332
                    CHANNELS 3 Zrotation Yrotation Xrotation
                    JOINT LeftHandMiddle2
                    {
                      OFFSET 6.19078 -0.259278 -1.002548
                      CHANNELS 3 Zrotation Yrotation Xrotation
                      JOINT LeftHandMiddle3
                      {
                        OFFSET 4.35652 -4e-06 -1e-06
                        CHANNELS 3 Zrotation Yrotation Xrotation
                        JOINT LeftHandMiddle4
                        {
                          OFFSET 2.996877 -8e-06 0.0
                          CHANNELS 3 Zrotation Yrotation Xrotation
                          JOINT LeftHandMiddleEnd
                          {
                            OFFSET 2.304287 -0.294569 -0.031741
                            CHANNELS 3 Zrotation Yrotation Xrotation
                          }
                        }
                      }
                    }
                  }
                  JOINT LeftHandRing1
                  {
                    OFFSET 2.882643 -0.053652 -0.322543
                    CHANNELS 3 Zrotation Yrotation Xrotation
                    JOINT LeftHandRing2
                    {
                      OFFSET 5.854541 -0.486202 -1.373841
                      CHANNELS 3 Zrotation Yrotation Xrotation
                      JOINT LeftHandRing3
                      {
                        OFFSET 4.350578 0.0 3e-06
                        CHANNELS 3 Zrotation Yrotation Xrotation
                        JOINT LeftHandRing4
                        {
                          OFFSET 2.651321 7e-06 2e-06
                          CHANNELS 3 Zrotation Yrotation Xrotation
                          JOINT LeftHandRingEnd
                          {
                            OFFSET 1.936105 0.077687 -7.1e-05
                            CHANNELS 3 Zrotation Yrotation Xrotation
                          }
                        }
                      }
                    }
                  }
                  JOINT LeftHandPinky1
                  {
                    OFFSET 2.8655 -0.310005 -1.600378
                    CHANNELS 3 Zrotation Yrotation Xrotation
                    JOINT LeftHandPinky2
                    {
                      OFFSET 5.087849 -1.331141 -1.77123
                      CHANNELS 3 Zrotation Yrotation Xrotation
                      JOINT LeftHandPinky3
                      {
                        OFFSET 3.070974 4e-06 0.0
                        CHANNELS 3 Zrotation Yrotation Xrotation
                        JOINT LeftHandPinky4
                        {
                          OFFSET 1.549672 0.0 1e-06
                          CHANNELS 3 Zrotation Yrotation Xrotation
                          JOINT LeftHandPinkyEnd
                          {
                            OFFSET 1.944893 -0.157802 0.057219
                            CHANNELS 3 Zrotation Yrotation Xrotation
                          }
                        }
                      }
                    }
                  }
                }
              }
            }
          }
          JOINT RightShoulder
          {
            OFFSET -1.380118 23.180309 5.214158
            CHANNELS 3 Zrotation Yrotation Xrotation
            JOINT RightArm
            {
              OFFSET -15.037196 1.2e-05 -5.545604
              CHANNELS 3 Zrotation Yrotation Xrotation
              JOINT RightForeArm
              {
                OFFSET -28.736639 2e-06 -0.002597
                CHANNELS 3 Zrotation Yrotation Xrotation
                JOINT RightHand
                {
                  OFFSET -27.133619 -0.0 0.002613
                  CHANNELS 3 Zrotation Yrotation Xrotation
                  JOINT RightHandThumb1
                  {
                    OFFSET -2.274032 -1.383988 3.163127
                    CHANNELS 3 Zrotation Yrotation Xrotation
                    JOINT RightHandThumb2
                    {
                      OFFSET -4.011429 -1.827466 1.640914
                      CHANNELS 3 Zrotation Yrotation Xrotation
                      JOINT RightHandThumb3
                      {
                        OFFSET -2.794935 -4e-06 -3e-06
                        CHANNELS 3 Zrotation Yrotation Xrotation
                        JOINT RightHandThumbEnd
                        {
                          OFFSET -3.183852 4e-06 1e-06
                          CHANNELS 3 Zrotation Yrotation Xrotation
                        }
                      }
                    }
                  }
                  JOINT RightHandIndex1
                  {
                    OFFSET -3.253266 -0.520057 2.282866
                    CHANNELS 3 Zrotation Yrotation Xrotation
                    JOINT RightHandIndex2
                    {
                      OFFSET -6.341917 0.012471 0.178266
                      CHANNELS 3 Zrotation Yrotation Xrotation
                      JOINT RightHandIndex3
                      {
                        OFFSET -3.654871 -8e-06 -0.0
                        CHANNELS 3 Zrotation Yrotation Xrotation
                        JOINT RightHandIndex4
                        {
                          OFFSET -2.327586 0.0 1e-06
                          CHANNELS 3 Zrotation Yrotation Xrotation
                          JOINT RightHandIndexEnd
                          {
                            OFFSET -2.76179 -0.180656 -0.113078
                            CHANNELS 3 Zrotation Yrotation Xrotation
                          }
                        }
                      }
                    }
                  }
                  JOINT RightHandMiddle1
                  {
                    OFFSET -3.168106 0.246593 1.00103
                    CHANNELS 3 Zrotation Yrotation Xrotation
                    JOINT RightHandMiddle2
                    {
                      OFFSET -6.180828 -0.258836 -1.000895
                      CHANNELS 3 Zrotation Yrotation Xrotation
                      JOINT RightHandMiddle3
                      {
                        OFFSET -4.348901 0.0 -0.0
                        CHANNELS 3 Zrotation Yrotation Xrotation
                        JOINT RightHandMiddle4
                        {
                          OFFSET -3.00024 -4e-06 -2e-06
                          CHANNELS 3 Zrotation Yrotation Xrotation
                          JOINT RightHandMiddleEnd
                          {
                            OFFSET -2.30252 -0.29437 -0.031706
                            CHANNELS 3 Zrotation Yrotation Xrotation
                          }
                        }
                      }
                    }
                  }
                  JOINT RightHandRing1
                  {
                    OFFSET -2.88569 -0.067952 -0.308858
                    CHANNELS 3 Zrotation Yrotation Xrotation
                    JOINT RightHandRing2
                    {
                      OFFSET -5.854198 -0.48613 -1.373731
                      CHANNELS 3 Zrotation Yrotation Xrotation
                      JOINT RightHandRing3
                      {
                        OFFSET -4.33881 -4e-06 -0.0
                        CHANNELS 3 Zrotation Yrotation Xrotation
                        JOINT RightHandRing4
                        {
                          OFFSET -2.654903 -4e-06 4e-06
                          CHANNELS 3 Zrotation Yrotation Xrotation
                          JOINT RightHandRingEnd
                          {
                            OFFSET -1.933568 0.077527 -5.2e-05
                            CHANNELS 3 Zrotation Yrotation Xrotation
                          }
                        }
                      }
                    }
                  }
                  JOINT RightHandPinky1
                  {
                    OFFSET -2.866425 -0.342796 -1.584145
                    CHANNELS 3 Zrotation Yrotation Xrotation
                    JOINT RightHandPinky2
                    {
                      OFFSET -5.091371 -1.332055 -1.772385
                      CHANNELS 3 Zrotation Yrotation Xrotation
                      JOINT RightHandPinky3
                      {
                        OFFSET -3.062664 -4e-06 1e-06
                        CHANNELS 3 Zrotation Yrotation Xrotation
                        JOINT RightHandPinky4
                        {
                          OFFSET -1.546529 4e-06 -2e-06
                          CHANNELS 3 Zrotation Yrotation Xrotation
                          JOINT RightHandPinkyEnd
                          {
                            OFFSET -1.945119 -0.157718 0.057211
                            CHANNELS 3 Zrotation Yrotation Xrotation
                          }
                        }
                      }
                    }
                  }
                }
              }
            }
          }
        }
      }
    }
    JOINT LeftLeg
    {
      OFFSET 10.043214 -8.434526 2.595655
      CHANNELS 3 Zrotation Yrotation Xrotation
      JOINT LeftShin
      {
        OFFSET -1e-06 -43.221752 -0.802913
        CHANNELS 3 Zrotation Yrotation Xrotation
        JOINT LeftFoot
        {
          OFFSET 1e-06 -42.155094 -3.481523
          CHANNELS 3 Zrotation Yrotation Xrotation
          JOINT LeftToeBase
          {
            OFFSET 0.0 -5.059472 13.231529
            CHANNELS 3 Zrotation Yrotation Xrotation
            JOINT LeftToeEnd
            {
              OFFSET -0.009607 -1.647619 6.513017
              CHANNELS 3 Zrotation Yrotation Xrotation
            }
          }
        }
      }
    }
    JOINT RightLeg
    {
      OFFSET -10.047278 -8.29526 2.620317
      CHANNELS 3 Zrotation Yrotation Xrotation
      JOINT RightShin
      {
        OFFSET 1e-06 -43.362206 -0.805556
        CHANNELS 3 Zrotation Yrotation Xrotation
        JOINT RightFoot
        {
          OFFSET 2e-06 -42.117393 -3.478398
          CHANNELS 3 Zrotation Yrotation Xrotation
          JOINT RightToeBase
          {
            OFFSET -0.0 -5.079609 13.284196
            CHANNELS 3 Zrotation Yrotation Xrotation
            JOINT RightToeEnd
            {
              OFFSET 0.009532 -1.634378 6.460591
              CHANNELS 3 Zrotation Yrotation Xrotation
            }
          }
        }
      }
    }
  }
}
MOTION
Frames: 5
Frame Time: 0.03333333333333333
0.0 0.0 0.0 0.0 -0.0 0.0 -20.522863 73.034248 4.131825 0.85204 3.371976 7.641407 0.014325 0.222884 11.167622 0.276449 -1.38552 1.762307 2.761727 -2.746826 18.349258 -2.013596 3.758588 -22.199505 -0.449775 0.86425 -3.170349 -4.363414 1.072929 -32.058041 7.7e-05 -2.3e-05 5e-06 0.072248 0.041696 0.089291 0.596009 -3.778779 -10.693787 -0.459592 3.882265 -10.619947 5.923877 -18.075434 5.820618 -29.964979 -50.373768 -26.505888 -37.548168 -86.130013 39.958641 19.610727 -11.975248 -2.448306 -5.88211 9.861286 0.70259 -10.936875 -0.360574 7.156209 -2e-06 8.774825 -2e-06 -16.907339 17.362108 5.567845 -1.844032 2.498505 -2.507278 -10.163602 4.678945 4.62111 -20.976025 -3e-06 3e-06 -21.226288 2.451697 -3.594001 -0.0 -8e-06 0.0 -1.362681 2.240798 -0.746323 -21.334921 0.58491 3.008326 -13.821216 -2e-06 2e-06 -23.887175 -0.249076 -0.839483 -60.849499 2.228157 -1.09566 -0.294024 1.679688 0.833255 -14.218212 0.093215 1.300581 -34.212059 -0.287561 0.967175 -20.033218 0.964538 1.212844 -1e-06 1e-06 -0.0 -3.440391 0.788231 0.501655 -15.928189 -3.167308 2.999711 -6.338828 -0.0 1e-06 -18.123449 3.648183 -4.905669 -5e-06 0.0 -4e-06 -9.982917 21.247297 2.326617 43.047699 47.505859 -16.250647 -139.8013 89.851967 -138.588577 -24.756489 6.933637 -25.707848 2.243544 -5.255037 -3.180158 14.282896 -0.826599 6.952504 1e-06 -12.690606 -0.0 17.353788 -17.091497 2.076017 1.665666 -1.955922 -2.878298 4.727801 -4.170589 4.993924 11.020528 0.0 -0.0 12.109056 -3.735719 -2.866785 1e-06 0.0 0.0 1.291986 -1.928551 -1.49809 14.800132 0.567465 3.865608 14.242579 -1.341738 -6.660657 19.631973 0.143921 -0.648246 50.015724 -0.575158 -6.723804 0.35303 -1.51115 -0.03194 20.222799 3.684305 2.316632 18.787283 -1e-06 -3e-06 10.751634 -0.479871 1.397906 -0.0 1e-06 1e-06 3.273808 0.305947 -0.58011 21.486818 11.830371 2.266135 8.16293 -0.0 -1e-06 18.399092 -3.798988 -4.940578 3e-06 -0.0 -1e-06 1.455696 -2.335271 -61.47546 -0.727623 -0.604478 97.43116 -7.195613 7.060214 -29.172955 1.704685 -1.969761 -3.32214 -0.0 -0.0 1e-06 -10.245781 5.800517 -60.120338 0.5234 0.839688 94.000366 9.864105 -0.120995 -34.855682 -1.503276 1.249621 0.144124 0.0 0.0 -1e-06 
0.0 0.0 0.0 0.0 -0.0 0.0 -20.543707 75.533417 4.709749 0.150609 3.333258 6.498655 0.073131 0.241791 10.731859 0.308048 -1.653632 1.068856 3.353864 -2.822059 16.294739 -1.757053 3.694837 -19.428429 -0.3491 1.650454 -3.297918 -4.44242 1.52436 -29.746857 7.7e-05 -2.3e-05 6e-06 0.082913 0.112092 0.090049 0.602812 -3.736321 -10.757462 -0.444698 3.983198 -10.674547 11.848671 -20.000389 3.269541 -9.417007 -48.422333 -54.926926 -160.411987 -78.970276 163.414307 22.282061 -15.856052 -5.761416 -5.882107 9.861284 0.702588 -10.936874 -0.360574 7.156206 -2e-06 8.774824 -2e-06 -15.319896 16.718138 6.583478 -1.844034 2.498504 -2.507277 -10.163603 4.678944 4.621108 -20.976027 -3e-06 4e-06 -21.226288 2.451697 -3.593999 0.0 -7e-06 1e-06 -1.362682 2.240798 -0.746323 -21.334917 0.584908 3.008324 -13.821217 -3e-06 3e-06 -23.887175 -0.249078 -0.839482 -61.40078 2.67188 -1.319113 -0.294026 1.679688 0.833256 -14.21821 0.093215 1.300581 -34.212059 -0.287563 0.967171 -20.033215 0.964537 1.212844 -1e-06 -0.0 0.0 -3.440388 0.788234 0.501656 -15.928187 -3.16731 2.999707 -6.338828 -1e-06 2e-06 -18.123444 3.648182 -4.90567 -4e-06 0.0 -2e-06 -14.992378 21.32921 -0.608873 25.584158 55.589088 -33.541767 176.718353 78.572594 177.43103 -25.706041 11.374094 -19.617771 2.243543 -5.25504 -3.18016 14.282903 -0.826595 6.952507 -0.0 -12.69061 -4e-06 16.097704 -16.995317 2.492338 1.665668 -1.955922 -2.878299 4.727804 -4.170591 4.993924 11.020534 3e-06 -0.0 12.10906 -3.735719 -2.866785 0.0 -1e-06 -1e-06 1.291987 -1.928552 -1.49809 14.800139 0.567469 3.86561 14.242582 -1.341739 -6.660659 19.631981 0.143923 -0.648244 49.769028 -0.464721 -6.344656 0.353029 -1.51115 -0.03194 20.222805 3.684308 2.316633 18.787287 3e-06 -1e-06 10.751636 -0.47987 1.397906 0.0 -0.0 -0.0 3.273809 0.305946 -0.58011 21.486828 11.830377 2.266137 8.162935 2e-06 -0.0 18.399096 -3.798988 -4.940578 3e-06 0.0 -1e-06 2.198387 -2.895766 -58.030724 -0.80437 -0.720448 94.411278 -7.409785 7.44345 -25.229654 1.625699 -1.913885 -5.144216 -0.0 -0.0 2e-06 -8.930404 6.513638 -56.247658 0.583501 0.850191 89.970688 9.289824 -1.124777 -32.19212 -1.513296 1.266603 -0.684539 0.0 0.0 -1e-06 
0.0 0.0 0.0 0.0 -0.0 0.0 -20.651127 79.50705 5.548369 -0.747952 3.5556 6.156957 -0.004897 0.120626 10.058002 0.16643 -1.505948 0.245301 4.308237 -3.094959 14.091167 -0.739763 3.44454 -17.473841 -0.541696 1.676401 -3.29157 -4.357549 2.362291 -27.49227 7.7e-05 -2.3e-05 6e-06 0.034242 0.003913 0.066759 0.595568 -3.864106 -10.740329 -0.53206 3.893739 -10.664638 16.696365 -22.350653 2.134479 9.722558 -38.578823 -85.314529 -165.572205 -72.93248 169.957092 27.841427 -15.601139 -15.581337 -5.88211 9.861292 0.702588 -10.93688 -0.360577 7.156208 1e-06 8.774831 -1e-06 -15.324179 16.994967 7.180941 -1.844037 2.498507 -2.50728 -10.163607 4.678946 4.621109 -20.97604 -7e-06 -2e-06 -21.226303 2.451694 -3.594005 1e-06 -6e-06 -0.0 -1.362682 2.2408 -0.746324 -21.334929 0.584906 3.00832 -13.821224 -5e-06 -1e-06 -23.887188 -0.249085 -0.839486 -61.531502 3.135505 -1.186225 -0.294024 1.679689 0.833256 -14.218221 0.093214 1.300577 -34.212082 -0.287572 0.967166 -20.033232 0.964532 1.212843 -0.0 0.0 -0.0 -3.440392 0.788234 0.501655 -15.928201 -3.167314 2.999706 -6.338829 -2e-06 -0.0 -18.123459 3.648181 -4.905678 -4e-06 -0.0 -2e-06 -17.767593 21.539457 -2.616064 -6.425038 55.568161 -66.117348 179.56897 77.124603 -179.933182 -26.995987 12.498197 -17.613478 2.243544 -5.25504 -3.18016 14.282904 -0.826595 6.952505 -4e-06 -12.690609 1e-06 14.367342 -16.918583 3.56321 1.66567 -1.955923 -2.878301 4.727803 -4.170588 4.993924 11.020538 3e-06 -3e-06 12.109066 -3.735717 -2.866787 0.0 -0.0 -1e-06 1.291987 -1.928551 -1.498092 14.800144 0.567468 3.865608 14.242586 -1.341736 -6.660663 19.631987 0.143927 -0.648247 46.879082 -0.622649 -5.916464 0.35303 -1.511152 -0.03194 20.222811 3.684312 2.31663 18.787292 6e-06 -3e-06 10.751641 -0.479868 1.397906 0.0 -1e-06 0.0 3.27381 0.305947 -0.580112 21.486832 11.830381 2.266131 8.162935 3e-06 -2e-06 18.399099 -3.798983 -4.940581 3e-06 -0.0 -1e-06 3.284108 -2.963023 -53.823162 -0.605693 -0.703396 88.261192 -7.233025 7.776362 -20.718601 1.619945 -1.915845 -5.565662 0.0 -1e-06 2e-06 -7.332714 7.335105 -51.638741 0.603027 0.804647 83.13266 8.105104 -2.103083 -27.859186 -1.511575 1.325124 -1.854431 -0.0 -0.0 -1e-06 
0.0 0.0 0.0 0.0 -0.0 0.0 -20.795227 84.883629 6.663921 -1.387312 4.05414 6.306635 -0.059914 -0.022361 9.444911 -0.091876 -1.296789 -0.551727 5.14902 -3.071412 11.753052 0.282545 3.16321 -16.615847 -0.618773 1.708878 -3.341955 -4.319123 2.561639 -25.725872 7.7e-05 -2.3e-05 5e-06 0.032216 0.034218 0.018743 0.579808 -3.818418 -10.688036 -0.515343 3.901187 -10.609422 21.860289 -24.37056 0.899747 20.301231 -24.534462 -102.331688 -172.171448 -76.609505 178.481598 33.202995 -16.119932 -18.273277 -5.882103 9.861281 0.70259 -10.936866 -0.360576 7.156203 1e-06 8.774821 -2e-06 -16.007368 16.473467 7.243812 -1.844033 2.498501 -2.507276 -10.163595 4.678942 4.621107 -20.976013 -4e-06 4e-06 -21.226274 2.451696 -3.593996 1e-06 -6e-06 1e-06 -1.362681 2.240796 -0.746323 -21.334908 0.584909 3.008323 -13.821209 -2e-06 3e-06 -23.887161 -0.249077 -0.83948 -62.255035 2.75369 -1.16199 -0.294024 1.679684 0.833256 -14.218201 0.093215 1.300581 -34.21204 -0.287562 0.967172 -20.033205 0.964537 1.212843 -0.0 0.0 -0.0 -3.440386 0.788233 0.501656 -15.928183 -3.167309 2.999708 -6.338824 -0.0 -0.0 -18.123444 3.648183 -4.90567 -5e-06 0.0 -3e-06 -19.022324 22.595289 -3.077049 -31.243891 42.633247 -88.596916 -162.783279 85.982437 -162.516846 -31.019594 13.019797 -11.857217 2.243543 -5.255039 -3.180161 14.282902 -0.826595 6.952507 -4e-06 -12.690609 2e-06 14.384648 -16.634855 4.19271 1.665667 -1.955923 -2.878302 4.727801 -4.170588 4.993928 11.020533 3e-06 -2e-06 12.10906 -3.735717 -2.866786 1e-06 -0.0 0.0 1.291987 -1.928549 -1.498091 14.80014 0.56747 3.86561 14.242582 -1.341734 -6.660662 19.631979 0.143927 -0.648245 45.82616 -1.248911 -5.598278 0.353028 -1.511151 -0.03194 20.222803 3.684311 2.316631 18.787289 6e-06 -0.0 10.751637 -0.479868 1.397907 1e-06 -0.0 1e-06 3.27381 0.305946 -0.580111 21.486832 11.830381 2.266134 8.162933 3e-06 -0.0 18.399096 -3.798985 -4.940577 4e-06 -1e-06 -2e-06 3.97079 -1.649657 -48.482834 -0.268253 -0.556422 78.872429 -6.193488 6.723453 -14.416905 1.684608 -2.069234 -6.390009 0.0 0.0 2e-06 -5.896177 7.282041 -45.635784 0.588281 0.721672 72.786858 6.483508 -3.474025 -22.032204 -1.507407 1.242603 -2.389783 -0.0 -0.0 -1e-06 
0.0 0.0 0.0 0.0 -0.0 0.0 -20.781734 91.625114 8.213978 -1.168668 5.026525 6.443912 -0.254462 -0.165635 8.647974 -0.276658 -0.894068 -1.277724 5.236965 -3.056721 9.468986 0.951315 2.84191 -15.950065 -0.701798 1.829383 -3.432711 -4.217103 2.353966 -24.777119 7.7e-05 -2.3e-05 6e-06 0.046017 0.08885 0.015577 0.560074 -3.712092 -10.527166 -0.464977 3.897715 -10.46447 26.860432 -25.193727 -0.475698 24.458155 -13.14631 -105.282692 155.848068 -87.348785 -149.746857 34.299091 -16.045118 -12.414248 -5.882101 9.861286 0.702591 -10.936867 -0.360576 7.156206 1e-06 8.774824 -2e-06 -17.110451 16.703543 6.992474 -1.84403 2.498504 -2.507277 -10.163595 4.678945 4.621109 -20.976019 -5e-06 4e-06 -21.226276 2.451698 -3.593997 0.0 -7e-06 -1e-06 -1.362681 2.2408 -0.746325 -21.334906 0.58491 3.008326 -13.82121 -3e-06 4e-06 -23.887159 -0.249077 -0.83948 -63.46114 2.554411 -1.307529 -0.294025 1.679687 0.833255 -14.218206 0.093215 1.300583 -34.212036 -0.287562 0.967176 -20.033209 0.964538 1.212846 0.0 0.0 -0.0 -3.440387 0.788234 0.501656 -15.928183 -3.16731 2.99971 -6.338824 -4e-06 1e-06 -18.123444 3.648183 -4.905668 -3e-06 -0.0 -2e-06 -20.230726 24.266932 -2.616659 -41.370861 26.522768 -92.084915 -12.379397 78.747414 -11.789038 -37.635239 11.983515 -5.875305 2.243541 -5.255037 -3.180158 14.282887 -0.826594 6.952503 -1e-06 -12.690603 1e-06 15.773947 -16.653034 4.005719 1.665665 -1.955921 -2.878299 4.727797 -4.170587 4.993924 11.020524 4e-06 -2e-06 12.109048 -3.735715 -2.866785 1e-06 0.0 -1e-06 1.291985 -1.928548 -1.49809 14.800123 0.567468 3.865607 14.242568 -1.341737 -6.660657 19.631962 0.143927 -0.648245 48.502914 -1.189274 -5.784896 0.353029 -1.511152 -0.031941 20.222786 3.684312 2.316629 18.78727 5e-06 1e-06 10.751625 -0.479868 1.397907 0.0 -0.0 -1e-06 3.273806 0.305946 -0.58011 21.486805 11.830374 2.266132 8.162926 -0.0 -1e-06 18.399076 -3.798986 -4.940577 3e-06 -0.0 -1e-06 3.385187 1.066554 -40.764362 -0.018793 -0.362701 65.054062 -5.250875 4.22086 -5.757792 1.825423 -2.087846 -7.79939 0.0 0.0 3e-06 -5.279161 5.579592 -36.901367 0.541394 0.716728 57.69223 5.053303 -3.759597 -14.208909 -1.536484 1.185576 -2.730414 -0.0 0.0 -1e-06 
